<?xml version="1.0" encoding="utf-8"?>
<!-- Generator: Adobe Illustrator 25.4.1, SVG Export Plug-In . SVG Version: 6.00 Build 0)  -->
<svg version="1.1" id="Layer_1" xmlns="http://www.w3.org/2000/svg" xmlns:xlink="http://www.w3.org/1999/xlink" x="0px" y="0px"
	 viewBox="0 0 512 512" style="enable-background:new 0 0 512 512;" xml:space="preserve">
<g>
	<path d="M448.6,403.2c-53.6,38.6-130.9-11.6-216.5-118.4c9.8,87.2-15.8,184.1-103.8,227.2C82,417.5,52.4,334.7,43.8,269.6
		c-0.1-1.3-0.3-2.5-0.4-3.7C32.1,177.5,57,77.9,146.6,34c28.3,57.9,50.5,111.4,65.3,159.1C262,58.4,322-17.6,386.6,3.5
		c38.7,12.7,44.3,50.7,30.2,93.9c-14.3,43.7-48.1,91.5-92.4,120.4c51.1,14.1,97.7,49.4,124.6,86.8
		C475.5,341.5,481.6,379.4,448.6,403.2"/>
</g>
</svg>
